# xmcd
#
# Track frame offsets:
#	150
#	19125
#	35700
#	64725
#	83925
#	99900
#
# Disc length: 1580 seconds
#
# Revision: 1
# Processed by: cddbd v1.5.2PL0 Copyright (c) Steve Scherf et al.
# Submitted via: audiograbber 1.83.01
#
DISCID=45062a06
DTITLE=Fusebusters - Ticket Home
DYEAR=1998
DGENRE=Blues
TTITLE0=Allways Something
TTITLE1=Shape I'm In
TTITLE2=Djadzia
TTITLE3=Budget Love
TTITLE4=Ticket Home
TTITLE5=Prison
EXTD=
EXTT0=
EXTT1=
EXTT2=
EXTT3=
EXTT4=
EXTT5=
PLAYORDER=
